# xmcd CD database file
#
# Track frame offsets:
#	150
#	20985
#	35385
#
# Disc length: 647 seconds
#
# Revision: 0
# Processed by: cddbd v1.5PL3 Copyright (c) Steve Scherf et al.
# Submitted via: CDex 1.50
#
DISCID=20028503
DTITLE=the pillows - ストレンジ カメレオン
DYEAR=1996
DGENRE=Rock
TTITLE0=ストレンジ カメレオン
TTITLE1=Yellow beans
TTITLE2=FAKIN' IT
EXTD=YEAR: 1996
EXTT0=
EXTT1=
EXTT2=
PLAYORDER=
